<svg width="26" height="26" viewBox="0 0 26 26" fill="none" xmlns="http://www.w3.org/2000/svg">
<path id="Vector" d="M2.6507 15.379C1.59378 16.4359 1 17.8694 1 19.3642C1 20.8589 1.59378 22.2924 2.6507 23.3493C3.70763 24.4062 5.14113 25 6.63584 25C8.13056 25 9.56406 24.4062 10.621 23.3493M14.6029 11.3971C15.1263 11.9204 15.5414 12.5417 15.8247 13.2255C16.1079 13.9092 16.2537 14.6421 16.2537 15.3822C16.2537 16.1224 16.1079 16.8552 15.8247 17.539C15.5414 18.2228 15.1263 18.8441 14.6029 19.3674L10.6178 23.3525M6.63262 11.3971L2.64748 15.3822M23.3493 10.621C24.4062 9.56406 25 8.13056 25 6.63584C25 5.14113 24.4062 3.70763 23.3493 2.6507C22.2924 1.59378 20.8589 1 19.3642 1C17.8694 1 16.4359 1.59378 15.379 2.6507M11.3971 14.6045C10.8737 14.0812 10.4586 13.4599 10.1753 12.7761C9.89205 12.0924 9.74627 11.3595 9.74627 10.6194C9.74627 9.87926 9.89205 9.14639 10.1753 8.46261C10.4586 7.77884 10.8737 7.15755 11.3971 6.63424L15.3822 2.64909M19.3674 14.6045L23.3525 10.6194" stroke="#7D7D7D" stroke-width="2" stroke-linecap="round" stroke-linejoin="round"/>
</svg>
