<svg width="18" height="15" viewBox="0 0 18 15" fill="none" xmlns="http://www.w3.org/2000/svg">
<path d="M15.44 3.08008C15.44 3.08008 17 4.4 17 7C17 10.5 15.44 11.4001 15.44 11.4001" stroke="black" stroke-width="2" stroke-linecap="round" stroke-linejoin="round"/>
<path d="M12 4.5C12 4.5 13 5.10823 13 7.5C13 9.89177 12 10.5 12 10.5" stroke="black" stroke-width="2" stroke-linecap="round" stroke-linejoin="round"/>
<path d="M1 9.27484V5.20516C1 4.64326 1.3725 4.18774 1.832 4.18774H4.07609C4.24035 4.18774 4.40093 4.12828 4.5376 4.01687L8.02649 1.17259C8.57944 0.721831 9.32 1.20652 9.32 2.01913V12.4609C9.32 13.2735 8.57944 13.7582 8.02649 13.3074L4.5376 10.4631C4.40093 10.3517 4.24035 10.2923 4.07609 10.2923H1.832C1.3725 10.2923 1 9.83676 1 9.27484Z" stroke="black" stroke-width="2"/>
</svg>
