<svg width="38" height="38" viewBox="0 0 74 74" fill="none" xmlns="http://www.w3.org/2000/svg">
<g id="&#240;&#159;&#166;&#134; icon &#34;player play filled&#34;">
<path id="Vector" d="M18.845 12.23V61.15C18.8448 61.694 18.9898 62.2283 19.265 62.6975C19.5402 63.1668 19.9356 63.5542 20.4105 63.8196C20.8853 64.0851 21.4224 64.2191 21.9663 64.2077C22.5102 64.1964 23.0412 64.0401 23.5046 63.755L63.2521 39.295C63.6973 39.0215 64.0649 38.6384 64.3199 38.1824C64.575 37.7263 64.7089 37.2125 64.7089 36.69C64.7089 36.1675 64.575 35.6537 64.3199 35.1977C64.0649 34.7417 63.6973 34.3586 63.2521 34.085L23.5046 9.62503C23.0412 9.33997 22.5102 9.18369 21.9663 9.17233C21.4224 9.16097 20.8853 9.29493 20.4105 9.5604C19.9356 9.82587 19.5402 10.2132 19.265 10.6825C18.9898 11.1518 18.8448 11.686 18.845 12.23Z" fill="black"/>
</g>
</svg>
