<svg width="38" height="38" viewBox="0 0 74 74" fill="none" xmlns="http://www.w3.org/2000/svg">
<g id="&#240;&#159;&#166;&#134; icon &#34;player pause filled&#34;">
<path id="Vector" d="M27.5175 12.23H21.4025C19.7807 12.23 18.2253 12.8743 17.0785 14.0211C15.9317 15.1678 15.2875 16.7232 15.2875 18.345V55.035C15.2875 56.6568 15.9317 58.2122 17.0785 59.359C18.2253 60.5058 19.7807 61.15 21.4025 61.15H27.5175C29.1393 61.15 30.6946 60.5058 31.8414 59.359C32.9882 58.2122 33.6325 56.6568 33.6325 55.035V18.345C33.6325 16.7232 32.9882 15.1678 31.8414 14.0211C30.6946 12.8743 29.1393 12.23 27.5175 12.23Z" fill="black"/>
<path id="Vector_2" d="M51.9775 12.23H45.8625C44.2407 12.23 42.6853 12.8743 41.5385 14.0211C40.3918 15.1678 39.7475 16.7232 39.7475 18.345V55.035C39.7475 56.6568 40.3918 58.2122 41.5385 59.359C42.6853 60.5058 44.2407 61.15 45.8625 61.15H51.9775C53.5993 61.15 55.1547 60.5058 56.3015 59.359C57.4482 58.2122 58.0925 56.6568 58.0925 55.035V18.345C58.0925 16.7232 57.4482 15.1678 56.3015 14.0211C55.1547 12.8743 53.5993 12.23 51.9775 12.23Z" fill="black"/>
</g>
</svg>
