<svg width="37" height="36" viewBox="0 0 37 36" fill="none" xmlns="http://www.w3.org/2000/svg">
<g id="&#240;&#159;&#166;&#134; icon &#34;profile circle&#34;">
<g id="Group">
<path id="Vector" d="M36.4232 18C36.4232 8.082 28.2462 0 18.2116 0C8.17701 0 0 8.082 0 18C0 23.22 2.27645 27.918 5.88235 31.212C5.88235 31.23 5.88235 31.23 5.86413 31.248C6.04625 31.428 6.26479 31.572 6.44691 31.734C6.55618 31.824 6.64723 31.914 6.7565 31.986C7.08431 32.256 7.44854 32.508 7.79457 32.76C7.92205 32.85 8.03132 32.922 8.1588 33.012C8.50482 33.246 8.86905 33.462 9.25149 33.66C9.37897 33.732 9.52467 33.822 9.65215 33.894C10.0164 34.092 10.3988 34.272 10.7995 34.434C10.9452 34.506 11.0909 34.578 11.2366 34.632C11.6372 34.794 12.0379 34.938 12.4385 35.064C12.5842 35.118 12.7299 35.172 12.8756 35.208C13.3127 35.334 13.7498 35.442 14.1868 35.55C14.3143 35.586 14.4418 35.622 14.5875 35.64C15.0974 35.748 15.6073 35.82 16.1355 35.874C16.2083 35.874 16.2812 35.892 16.354 35.91C16.9732 35.964 17.5924 36 18.2116 36C18.8308 36 19.45 35.964 20.051 35.91C20.1238 35.91 20.1967 35.892 20.2695 35.874C20.7976 35.82 21.3076 35.748 21.8175 35.64C21.945 35.622 22.0725 35.568 22.2182 35.55C22.6552 35.442 23.1105 35.352 23.5294 35.208C23.6751 35.154 23.8208 35.1 23.9665 35.064C24.3671 34.92 24.786 34.794 25.1684 34.632C25.3141 34.578 25.4598 34.506 25.6055 34.434C25.988 34.272 26.3704 34.092 26.7528 33.894C26.8985 33.822 27.026 33.732 27.1535 33.66C27.5177 33.444 27.882 33.246 28.2462 33.012C28.3737 32.94 28.4829 32.85 28.6104 32.76C28.9747 32.508 29.3207 32.256 29.6485 31.986C29.7578 31.896 29.8488 31.806 29.9581 31.734C30.1584 31.572 30.3587 31.41 30.5409 31.248C30.5409 31.23 30.5409 31.23 30.5226 31.212C34.1468 27.918 36.4232 23.22 36.4232 18ZM27.2081 26.946C22.2728 23.67 14.1868 23.67 9.21507 26.946C8.41376 27.468 7.75814 28.08 7.21179 28.746C4.44363 25.974 2.73174 22.176 2.73174 18C2.73174 9.558 9.67036 2.7 18.2116 2.7C26.7528 2.7 33.6915 9.558 33.6915 18C33.6915 22.176 31.9796 25.974 29.2114 28.746C28.6833 28.08 28.0094 27.468 27.2081 26.946Z" fill="black"/>
<path id="Vector_2" d="M18.2116 8.87354C14.4418 8.87354 11.3823 11.8975 11.3823 15.6236C11.3823 19.2776 14.2779 22.2476 18.1206 22.3556H18.2845H18.4119H18.4484C22.1271 22.2296 25.0227 19.2776 25.041 15.6236C25.041 11.8975 21.9814 8.87354 18.2116 8.87354Z" fill="black"/>
</g>
</g>
</svg>
