<svg width="68" height="27" viewBox="0 0 68 27" fill="none" xmlns="http://www.w3.org/2000/svg">
<g id="ph:hand-waving">
<path id="Union" fill-rule="evenodd" clip-rule="evenodd" d="M31.8594 0.9375H32.3281L35.832 9.45703H33.3125L31.2087 3.98045L29.0937 9.45703H26.5742L30.0781 0.9375H30.5469H31.8594ZM47.0937 20.3906V18H36.418V20.3906H47.0937ZM57.8047 20.3906V18H47.1289V20.3906H57.8047ZM63.6875 0.9375H64.1562L67.6602 9.45703H65.1406L63.0368 3.98045L60.9219 9.45703H58.4023L61.9062 0.9375H62.375H63.6875ZM20.5359 7.98982L22.364 11.1565C23.1476 12.5141 23.5604 14.0539 23.5609 15.6215C23.5614 17.189 23.1496 18.729 22.3669 20.0871C21.5842 21.4452 20.458 22.5736 19.1015 23.359C17.7449 24.1444 16.2057 24.5592 14.6382 24.5618C13.8523 24.5624 13.0697 24.4599 12.3104 24.2571C11.1756 23.9561 10.1117 23.4331 9.18025 22.7183C8.24883 22.0036 7.46833 21.1113 6.88389 20.093L3.02452 13.4082C2.78437 12.9926 2.6533 12.523 2.64353 12.0432C2.63376 11.5633 2.74561 11.0888 2.96865 10.6638C3.19169 10.2388 3.51866 9.87719 3.91912 9.61261C4.31957 9.34804 4.78048 9.18913 5.25889 9.15068L4.91968 8.56264C4.58198 7.97611 4.46454 7.28836 4.58847 6.62301C4.71239 5.95765 5.06956 5.3583 5.59577 4.93268C6.12199 4.50706 6.78275 4.28307 7.45931 4.30096C8.13588 4.31885 8.78388 4.57745 9.28687 5.03029C9.54441 4.61011 9.90672 4.26408 10.3383 4.02611C10.7699 3.78814 11.2559 3.66642 11.7486 3.67287C12.2414 3.67932 12.7241 3.81373 13.1493 4.06291C13.5745 4.31209 13.9276 4.6675 14.1741 5.09428L15.732 7.79482C16.0046 7.39987 16.3728 7.08034 16.8022 6.86598C17.2315 6.65163 17.7082 6.54942 18.1877 6.56888C18.6672 6.58835 19.134 6.72885 19.5446 6.9773C19.9552 7.22575 20.2962 7.57407 20.5359 7.98982ZM19.4449 21.1227C20.5322 20.1691 21.3124 18.9144 21.6866 17.5174V17.5164C21.9369 16.589 22.0008 15.6212 21.8744 14.6689C21.748 13.7167 21.4339 12.799 20.9503 11.969L19.1222 8.80232C18.9574 8.52871 18.6919 8.33069 18.3826 8.25087C18.0734 8.17105 17.7452 8.21582 17.4686 8.37554C17.192 8.53526 16.9892 8.79716 16.9037 9.1049C16.8183 9.41264 16.8571 9.74163 17.0117 10.0211L18.0273 11.7801C18.0807 11.8726 18.1153 11.9746 18.1293 12.0804C18.1432 12.1862 18.1361 12.2937 18.1085 12.3968C18.0809 12.4999 18.0332 12.5965 17.9682 12.6812C17.9032 12.7659 17.8222 12.8369 17.7298 12.8902C16.9834 13.3212 16.4388 14.0311 16.2158 14.8636C15.9928 15.6961 16.1095 16.5831 16.5405 17.3295C16.6482 17.5162 16.6774 17.738 16.6216 17.9462C16.5658 18.1544 16.4295 18.3318 16.2429 18.4396C16.0562 18.5473 15.8344 18.5765 15.6262 18.5207C15.418 18.4649 15.2405 18.3287 15.1328 18.142C14.5583 17.1435 14.3554 15.974 14.5598 14.8403C14.7642 13.7066 15.3629 12.6817 16.25 11.9467L12.7654 5.91186C12.6006 5.63824 12.3351 5.44022 12.0258 5.3604C11.7166 5.28059 11.3884 5.32535 11.1118 5.48507C10.8352 5.64479 10.6324 5.90669 10.5469 6.21443C10.4615 6.52218 10.5003 6.85116 10.6549 7.13061L13.2955 11.7009C13.3966 11.887 13.421 12.1053 13.3635 12.3091C13.3061 12.5129 13.1713 12.6863 12.9879 12.7922C12.8045 12.8981 12.587 12.9283 12.3817 12.8762C12.1765 12.8241 11.9996 12.694 11.8889 12.5134L8.43577 6.5324C8.35614 6.39343 8.24967 6.27167 8.12257 6.17421C7.99546 6.07675 7.85025 6.00552 7.69538 5.96467C7.46255 5.90225 7.21644 5.91028 6.98817 5.98774C6.7599 6.0652 6.55973 6.2086 6.41297 6.39983C6.26621 6.59105 6.17945 6.82151 6.16366 7.06204C6.14788 7.30257 6.20377 7.54239 6.32429 7.75115L10.1837 14.435C10.2404 14.5275 10.278 14.6304 10.2943 14.7377C10.3106 14.8449 10.3053 14.9544 10.2786 15.0595C10.2519 15.1647 10.2044 15.2635 10.139 15.35C10.0735 15.4365 9.99139 15.5091 9.89743 15.5633C9.80348 15.6176 9.69961 15.6525 9.59195 15.666C9.48429 15.6794 9.37502 15.6712 9.27059 15.6418C9.16616 15.6123 9.06869 15.5623 8.98392 15.4946C8.89915 15.4268 8.8288 15.3428 8.77702 15.2475L6.54264 11.3779C6.46262 11.2393 6.35607 11.1178 6.22908 11.0203C6.1021 10.9229 5.95715 10.8514 5.80253 10.8099C5.49026 10.7262 5.15753 10.77 4.87753 10.9316C4.59753 11.0932 4.3932 11.3594 4.30949 11.6717C4.26804 11.8263 4.25745 11.9876 4.27833 12.1463C4.2992 12.305 4.35114 12.4581 4.43116 12.5967L8.29053 19.2815C9.01372 20.534 10.0921 21.5439 11.3892 22.1836C12.6864 22.8232 14.1441 23.0638 15.578 22.875C17.0119 22.6861 18.3576 22.0764 19.4449 21.1227ZM18.8551 3.75557C18.7901 3.84027 18.7425 3.93694 18.7149 4.04006C18.6873 4.14316 18.6802 4.25069 18.6941 4.35652C18.7081 4.46234 18.7427 4.56439 18.7961 4.65682C18.8495 4.74925 18.9206 4.83026 19.0053 4.89521C19.09 4.96016 19.1866 5.00779 19.2898 5.03537C20.4862 5.35529 21.4652 6.08654 22.0462 7.09404C22.0995 7.18647 22.1705 7.26749 22.2552 7.33246C22.3399 7.39744 22.4365 7.4451 22.5396 7.47274C22.6426 7.50037 22.7502 7.50743 22.856 7.49351C22.9618 7.47959 23.0638 7.44497 23.1562 7.39162C23.2487 7.33827 23.3297 7.26724 23.3947 7.18258C23.4596 7.09792 23.5073 7.00129 23.5349 6.89821C23.5626 6.79513 23.5696 6.68762 23.5557 6.58181C23.5418 6.476 23.5072 6.37397 23.4538 6.28154C22.6555 4.89826 21.3261 3.89889 19.7102 3.46522C19.6071 3.43757 19.4996 3.43052 19.3938 3.44445C19.2879 3.45838 19.1859 3.49303 19.0935 3.54642C19.001 3.5998 18.92 3.67087 18.8551 3.75557ZM7.97628 25.2767C8.06941 25.2245 8.15135 25.1545 8.21741 25.0706C8.35065 24.9014 8.41126 24.6862 8.38593 24.4724C8.3606 24.2585 8.25141 24.0635 8.08233 23.9301C7.12968 23.1785 6.33444 22.2197 5.57882 20.9116C5.47107 20.725 5.29359 20.5887 5.08541 20.5329C4.87723 20.4771 4.65541 20.5063 4.46874 20.614C4.28207 20.7218 4.14585 20.8993 4.09005 21.1075C4.03424 21.3156 4.06342 21.5375 4.17116 21.7241C5.03343 23.2171 5.95866 24.3231 7.07585 25.2057C7.15966 25.2718 7.25567 25.3208 7.35842 25.3498C7.46116 25.3788 7.56861 25.3873 7.67462 25.3747C7.78064 25.3622 7.88314 25.3288 7.97628 25.2767Z" fill="black"/>
</g>
</svg>
