<svg width="20" height="20" viewBox="0 0 20 20" fill="none" xmlns="http://www.w3.org/2000/svg">
<g id="Frame">
<path id="Vector" fill-rule="evenodd" clip-rule="evenodd" d="M9.99992 5.20801C8.73425 5.20801 7.70825 6.23402 7.70825 7.49967C7.70825 8.76534 8.73425 9.79134 9.99992 9.79134C11.2656 9.79134 12.2916 8.76534 12.2916 7.49967C12.2916 6.23402 11.2656 5.20801 9.99992 5.20801ZM8.95825 7.49967C8.95825 6.92437 9.42459 6.45801 9.99992 6.45801C10.5753 6.45801 11.0416 6.92437 11.0416 7.49967C11.0416 8.07497 10.5753 8.54134 9.99992 8.54134C9.42459 8.54134 8.95825 8.07497 8.95825 7.49967Z" fill="black"/>
<path id="Vector_2" fill-rule="evenodd" clip-rule="evenodd" d="M4.375 7.5C4.375 4.3934 6.8934 1.875 10 1.875C13.1066 1.875 15.625 4.3934 15.625 7.5C15.625 9.063 14.9875 10.4772 13.9583 11.4965V18.4699L10 16.674L6.04167 18.4699V11.4965C5.0125 10.4772 4.375 9.063 4.375 7.5ZM12.7083 10.8333H12.8337C13.7768 10.0308 14.375 8.83525 14.375 7.5C14.375 5.08375 12.4162 3.125 10 3.125C7.58376 3.125 5.625 5.08375 5.625 7.5C5.625 8.83525 6.2232 10.0308 7.16622 10.8333H7.29167V10.9362C8.03661 11.5241 8.97733 11.875 10 11.875C11.0227 11.875 11.9634 11.5241 12.7083 10.9362V10.8333ZM7.29167 16.5301V12.4313C7.92221 12.7783 8.6265 13.0079 9.375 13.0907V15.5849L7.29167 16.5301ZM12.7083 12.4313C12.0778 12.7783 11.3735 13.0079 10.625 13.0907V15.5849L12.7083 16.5301V12.4313Z" fill="black"/>
</g>
</svg>
